<svg xmlns="http://www.w3.org/2000/svg" viewBox="0 0 30.83 30.83"><defs><style>.cls-1{fill:none;stroke:#fff;stroke-linecap:round;stroke-linejoin:round;stroke-width:2px;}.cls-2{fill:#fff;}</style></defs><g id="Layer_2" data-name="Layer 2"><g id="Layer_1-2" data-name="Layer 1"><path class="cls-1" d="M15.41,22.42a7,7,0,1,0-7-7A7,7,0,0,0,15.41,22.42Z"/><path class="cls-2" d="M14,4.2a1.4,1.4,0,1,0,2.8,0Zm2.8-2.8a1.4,1.4,0,0,0-2.8,0Zm0,25.22a1.4,1.4,0,1,0-2.8,0ZM14,29.43a1.4,1.4,0,1,0,2.8,0ZM16.81,4.2V1.4H14V4.2ZM14,26.62v2.81h2.8V26.62Z"/><path class="cls-2" d="M6.6,8.58a1.4,1.4,0,0,0,2-2Zm0-4a1.41,1.41,0,0,0-2,2ZM24.43,22.45a1.4,1.4,0,1,0-2,2Zm0,4a1.4,1.4,0,1,0,2-2ZM8.58,6.6l-2-2-2,2,2,2ZM22.45,24.43l2,2,2-2-2-2Z"/><path class="cls-2" d="M4.2,16.81a1.4,1.4,0,1,0,0-2.8ZM1.4,14a1.4,1.4,0,1,0,0,2.8Zm25.22,0a1.4,1.4,0,0,0,0,2.8Zm2.81,2.8a1.4,1.4,0,0,0,0-2.8ZM4.2,14H1.4v2.8H4.2Zm22.42,2.8h2.81V14H26.62Z"/><path class="cls-2" d="M22.45,6.6a1.39,1.39,0,0,0,0,2,1.41,1.41,0,0,0,2,0Zm4,0a1.4,1.4,0,1,0-2-2ZM8.58,24.43a1.41,1.41,0,0,0,0-2,1.39,1.39,0,0,0-2,0Zm-4,0a1.4,1.4,0,1,0,2,2ZM24.43,8.58l2-2-2-2-2,2ZM6.6,22.45l-2,2,2,2,2-2Z"/></g></g></svg>