<svg xmlns="http://www.w3.org/2000/svg" viewBox="0 0 19.62 27.62"><defs><style>.cls-1{fill:none;stroke:#fff;stroke-linecap:round;stroke-linejoin:round;stroke-width:2px;}.cls-2{fill:#fff;}</style></defs><g id="Layer_2" data-name="Layer 2"><g id="Layer_1-2" data-name="Layer 1"><path class="cls-1" d="M5.6,26.62H14"/><path class="cls-2" d="M16.44,15l1.1.86ZM3.18,15l-1.1.86h0ZM5.6,20.32h0ZM2.8,9.81a7,7,0,0,1,7-7V0A9.81,9.81,0,0,0,0,9.81Zm7-7a7,7,0,0,1,7,7h2.81A9.81,9.81,0,0,0,9.81,0Zm7,7a7,7,0,0,1-1.48,4.31l2.21,1.72a9.76,9.76,0,0,0,2.08-6ZM4.28,14.12A7,7,0,0,1,2.8,9.81H0a9.76,9.76,0,0,0,2.08,6ZM12.61,21H7v2.8h5.6ZM7,21H4.2A2.8,2.8,0,0,0,7,23.82Zm5.6,0v2.8a2.8,2.8,0,0,0,2.8-2.8ZM7,21v-.7H4.2V21Zm5.6-.7V21h2.8v-.7ZM2.08,15.84c1.24,1.59,2.12,3,2.12,4.48H7c0-2.53-1.5-4.64-2.73-6.2Zm13.25-1.72c-1.22,1.56-2.72,3.67-2.72,6.2h2.8c0-1.47.89-2.89,2.13-4.48Z"/></g></g></svg>