<svg xmlns="http://www.w3.org/2000/svg" viewBox="0 0 27.22 27.22"><defs><style>.cls-1{fill:none;stroke:#fff;stroke-linecap:round;stroke-linejoin:round;stroke-width:2px;}</style></defs><g id="Layer_2" data-name="Layer 2"><g id="Layer_1-2" data-name="Layer 1"><path class="cls-1" d="M13.59,26.22A12.62,12.62,0,0,1,1,13.61a5.63,5.63,0,0,0,1.52.21A5.13,5.13,0,0,0,6.8,11.61a4.58,4.58,0,0,0,.5-4.3,6.59,6.59,0,0,0,1.09.09,5.35,5.35,0,0,0,4.21-2A5.23,5.23,0,0,0,13.67,1a12.61,12.61,0,0,1-.08,25.22Z"/><path class="cls-1" d="M10.81,20.62Z"/><path class="cls-1" d="M17.81,17.81h0Z"/><path class="cls-1" d="M12.21,13.61Z"/><path class="cls-1" d="M19.22,10.81Z"/><path class="cls-1" d="M1,6.6Z"/><path class="cls-1" d="M8,1Z"/><path class="cls-1" d="M2.4,1Z"/></g></g></svg>