<svg xmlns="http://www.w3.org/2000/svg" viewBox="0 0 35.23 35.23"><defs><style>.cls-1,.cls-2{fill:none;}.cls-2{stroke:#064362;}.cls-3{fill:#064362;}</style></defs><g id="Layer_2" data-name="Layer 2"><g id="Layer_1-2" data-name="Layer 1"><rect class="cls-1" x="1" y="1" width="33.23" height="33.23" rx="3"/><rect class="cls-2" x="0.5" y="0.5" width="34.23" height="34.23" rx="3.5"/><path class="cls-3" d="M25.92,22a1.06,1.06,0,0,1-1.31-.5c-.75-1.13-1.58-2.2-2.39-3.3l-.34-.46c-.95,1.29-1.9,2.5-2.79,3.77a1,1,0,0,1-1.24.49l3.57-4.79-3.33-4.32a1.11,1.11,0,0,1,1.32.46c.77,1.13,1.63,2.2,2.47,3.34.86-1.13,1.7-2.21,2.5-3.33a1,1,0,0,1,1.23-.46l-1.29,1.71c-.57.76-1.14,1.53-1.74,2.27a.47.47,0,0,0,0,.69C23.7,19.05,24.8,20.52,25.92,22ZM9.31,17.16c.1-.48.16-1,.29-1.44a4,4,0,0,1,6.3-2.26,4.6,4.6,0,0,1,1.57,4.13H10.08c-.11,2.94,2,4.72,4.71,3.81a2.81,2.81,0,0,0,1.78-2c.14-.46.38-.53.81-.4a3.74,3.74,0,0,1-1.79,2.74,4.33,4.33,0,0,1-5.05-.65A4.54,4.54,0,0,1,9.4,18.43c0-.15-.06-.31-.09-.47Zm.78-.2h6.68c0-2.13-1.37-3.64-3.18-3.66A3.49,3.49,0,0,0,10.09,17Z"/></g></g></svg>