<svg xmlns="http://www.w3.org/2000/svg" viewBox="0 0 32.23 32.23"><defs><style>.cls-1{fill:#d2d4d5;}.cls-2{fill:#064362;}.cls-3{fill:#0a5f89;}.cls-4{fill:#aba3b4;}</style></defs><g id="Layer_2" data-name="Layer 2"><g id="Layer_1-2" data-name="Layer 1"><rect width="32.23" height="32.23" rx="2.5"/><path class="cls-1" d="M15.84,16.12a2.77,2.77,0,1,1,2.77,2.76A2.77,2.77,0,0,1,15.84,16.12Z"/><path class="cls-2" d="M10.3,21.65a2.77,2.77,0,0,1,2.77-2.77h2.77v2.77a2.77,2.77,0,0,1-5.54,0Z"/><path class="cls-3" d="M15.84,7.81v5.54h2.77a2.77,2.77,0,0,0,0-5.54Z"/><path class="cls-2" d="M10.3,10.58a2.77,2.77,0,0,0,2.77,2.77h2.77V7.81H13.07A2.77,2.77,0,0,0,10.3,10.58Z"/><path class="cls-4" d="M10.3,16.12a2.77,2.77,0,0,0,2.77,2.76h2.77V13.35H13.07A2.77,2.77,0,0,0,10.3,16.12Z"/></g></g></svg>