<svg xmlns="http://www.w3.org/2000/svg" viewBox="0 0 52 52"><defs><style>.cls-1{fill:#064362;}.cls-2{fill:none;stroke:#fff;stroke-miterlimit:10;stroke-width:2px;}</style></defs><g id="Layer_2" data-name="Layer 2"><g id="Layer_1-2" data-name="Layer 1"><path class="cls-1" d="M14.84,31.25V20.75h2.29L21,26.94H19.33l3.85-6.18H25.4v10.5H22.91V28.07c0-.92,0-1.75.07-2.48s.12-1.46.23-2.17l.29.78-2.9,4.48h-1l-2.83-4.45.28-.81a19.4,19.4,0,0,1,.25,2.08c0,.71.06,1.57.06,2.57v3.18Z"/><path class="cls-1" d="M26.71,31.25l4.15-10.5H33l4.12,10.5H34.58l-2-5.33c-.07-.21-.14-.43-.23-.67s-.17-.49-.24-.75-.16-.51-.23-.75-.13-.46-.18-.67l.43,0c-.05.25-.12.5-.19.73s-.15.48-.23.73l-.24.71c-.09.23-.18.48-.26.73l-2,5.29Zm2-2,.81-1.95h4.79l.82,1.95Z"/><rect class="cls-2" x="1" y="1" width="50" height="50" rx="10"/></g></g></svg>