<svg xmlns="http://www.w3.org/2000/svg" viewBox="0 0 35.23 35.23"><defs><style>.cls-1,.cls-2{fill:none;}.cls-2{stroke:#064362;}.cls-3{fill:#085e88;}.cls-3,.cls-4,.cls-5,.cls-6,.cls-7{fill-rule:evenodd;}.cls-4{fill:#064362;}.cls-5{fill:#034f75;}.cls-6{fill:#1f91d0;}.cls-7{fill:#4faa47;}</style></defs><g id="Layer_2" data-name="Layer 2"><g id="Layer_1-2" data-name="Layer 1"><rect class="cls-1" x="1" y="1" width="33.23" height="33.23" rx="3"/><rect class="cls-2" x="0.5" y="0.5" width="34.23" height="34.23" rx="3.5"/><path class="cls-3" d="M20.84,21.92l.07-.13a.05.05,0,0,1,.05,0h1.33a1.45,1.45,0,0,1,.58.14,1.08,1.08,0,0,1,.49.48,1.32,1.32,0,0,1,.13.44,1.59,1.59,0,0,1-.06.65,1.16,1.16,0,0,1-.49.62,1.37,1.37,0,0,1-.58.22,3,3,0,0,1-.67,0H21s-.05,0,0-.05v0c0-.07,0-.08.12-.09l.15-.06s0-.06,0-.09a.31.31,0,0,0,0-.1c0-.47,0-.95,0-1.42,0-.12,0-.24,0-.36S21.2,22,21.1,22l-.23,0Zm2.23,1.15a2.4,2.4,0,0,0,0-.28,1,1,0,0,0-.31-.58,1.23,1.23,0,0,0-1-.25c-.08,0-.1,0-.1.11s0,.24,0,.35v1.11c0,.11,0,.21,0,.32a.23.23,0,0,0,.15.24,1,1,0,0,0,.51,0,.79.79,0,0,0,.6-.44A1.37,1.37,0,0,0,23.07,23.07Zm.68,1.26a.25.25,0,0,1,.05-.15l.05,0,.16,0a.1.1,0,0,0,.09-.1s0-.08,0-.11V22.11A.14.14,0,0,0,24,22l-.2,0s0,0,0,0a1.17,1.17,0,0,1,.05-.11l.06,0H25a.93.93,0,0,1,.46.1.54.54,0,0,1,.1.87.91.91,0,0,1-.19.13h0l.17.07a.59.59,0,0,1,.37.34.71.71,0,0,1,0,.41.74.74,0,0,1-.38.47,1.22,1.22,0,0,1-.56.17c-.18,0-.37,0-.55,0h-.66Zm.77-.85h0v.28a.91.91,0,0,0,0,.17.23.23,0,0,0,.15.19,1.08,1.08,0,0,0,.4,0,.46.46,0,0,0,.36-.27.64.64,0,0,0,0-.36.47.47,0,0,0-.25-.37.68.68,0,0,0-.31-.08h-.36s0,0,0,0Zm.26-.62H25a.33.33,0,0,0,.3-.22.78.78,0,0,0,0-.22A.41.41,0,0,0,25,22a1.21,1.21,0,0,0-.42-.05.08.08,0,0,0-.09.09v.76s0,0,0,0Z"/><path class="cls-4" d="M10.2,24.18v.13H9.34v-.12s0,0,0,0l.12,0A.14.14,0,0,0,9.61,24a2.72,2.72,0,0,1,0-.28v-.68a.11.11,0,0,0-.07-.11l-.18-.08s-.07,0-.06-.06,0,0,.07-.05l.42-.1.14,0s0,.06,0,.09v.13a0,0,0,0,0,0,0s0,0,0,0a1.3,1.3,0,0,1,.38-.22.47.47,0,0,1,.55.19c0,.07,0,.07.11,0a1.58,1.58,0,0,1,.36-.2.49.49,0,0,1,.66.32.86.86,0,0,1,0,.32V24a.1.1,0,0,0,.08.11l.2.06,0,.12h-.79s0,0,0,0,0-.1.08-.12h0c.09,0,.12,0,.12-.14q0-.39,0-.78a.36.36,0,0,0-.49-.34A.74.74,0,0,0,11,23a.06.06,0,0,0,0,.07c0,.11,0,.23,0,.34V24c0,.08,0,.11.11.13l.12,0h0v.11s0,0,0,0h-.81a.49.49,0,0,1,0-.12,0,0,0,0,1,0,0l.14,0c.06,0,.09,0,.09-.11a5.77,5.77,0,0,0,0-.83.75.75,0,0,0,0-.16.33.33,0,0,0-.42-.18A.66.66,0,0,0,10,23a.11.11,0,0,0-.05.1V24c0,.08,0,.12.11.13Z"/><path class="cls-4" d="M18.59,22.63a.26.26,0,0,1-.06.27c-.08.07-.17.05-.27,0l0,.14a.65.65,0,0,1-.4.69,1.05,1.05,0,0,1-.35.08.13.13,0,0,0-.12.09.12.12,0,0,0,.09.12,1.6,1.6,0,0,0,.23,0l.49.06a.41.41,0,0,1,.33.5.74.74,0,0,1-.34.5,1.1,1.1,0,0,1-1,.16.53.53,0,0,1-.39-.4.29.29,0,0,1,.08-.28l.3-.24,0,0,0,0A.37.37,0,0,1,17,24.1a.06.06,0,0,1,0-.08l.17-.1.07-.06s0,0,0-.05a.63.63,0,0,1-.23-.16.68.68,0,0,1-.13-.43.58.58,0,0,1,.37-.51.86.86,0,0,1,.78,0,.61.61,0,0,0,.3,0A.3.3,0,0,0,18.59,22.63Zm-.95,1.76a.39.39,0,0,0-.37.14.3.3,0,0,0,0,.44.6.6,0,0,0,.35.16.77.77,0,0,0,.45-.07.36.36,0,0,0,.19-.4.28.28,0,0,0-.23-.22A1.89,1.89,0,0,0,17.64,24.39Zm-.38-1.23a1,1,0,0,0,0,.16.41.41,0,0,0,.23.31.3.3,0,0,0,.43-.18.7.7,0,0,0,0-.45.35.35,0,0,0-.12-.17.33.33,0,0,0-.49.11A.4.4,0,0,0,17.26,23.16Z"/><path class="cls-4" d="M15.31,22.6s0,0,0,.08a.76.76,0,0,1,0,.15v0l0,0a1.18,1.18,0,0,1,.39-.23.51.51,0,0,1,.63.34,1.26,1.26,0,0,1,.05.33V24c0,.09,0,.1.1.13l.14,0s0,0,0,0v0c0,.1,0,.1-.11.1h-.7c-.07,0-.07,0-.07-.06v0c0-.06,0-.06.06-.07l.12,0a.1.1,0,0,0,.06-.08s0,0,0-.06c0-.27,0-.53,0-.79a.33.33,0,0,0-.39-.33.63.63,0,0,0-.29.1.19.19,0,0,0-.06.16v.74a1,1,0,0,0,0,.17c0,.06,0,.08.08.09l.17,0v0c0,.1,0,.11-.11.11h-.73s-.05,0-.05,0v0c0-.1,0-.1.09-.12h0c.1,0,.12,0,.13-.15v-.95a.09.09,0,0,0-.05-.1l-.18-.07s-.07,0-.07-.07,0-.06.08-.07a2.8,2.8,0,0,0,.28-.06Z"/><path class="cls-4" d="M20.51,23.42a.87.87,0,0,1-.29.71,1,1,0,0,1-1,.14.78.78,0,0,1-.32-.33,1,1,0,0,1-.07-.69.72.72,0,0,1,.41-.52,1,1,0,0,1,.69-.1.78.78,0,0,1,.58.65S20.51,23.39,20.51,23.42Zm-.36.16h0V23.5A.94.94,0,0,0,20,23a.53.53,0,0,0-.39-.23.38.38,0,0,0-.4.29,1,1,0,0,0,.09.83.53.53,0,0,0,.28.25.39.39,0,0,0,.54-.28A2.89,2.89,0,0,0,20.15,23.58Z"/><path class="cls-4" d="M14.4,23.44a1,1,0,0,1-.19.58.87.87,0,0,1-.55.32.81.81,0,0,1-.7-.17.66.66,0,0,1-.21-.31,1,1,0,0,1-.05-.6.74.74,0,0,1,.36-.5,1,1,0,0,1,.72-.13.76.76,0,0,1,.6.61C14.39,23.31,14.39,23.38,14.4,23.44Zm-.36.14h0v0a1,1,0,0,0-.16-.54.5.5,0,0,0-.35-.21.39.39,0,0,0-.45.3,1.18,1.18,0,0,0,.06.74.58.58,0,0,0,.33.32.38.38,0,0,0,.53-.28A2.93,2.93,0,0,0,14,23.58Z"/><path class="cls-5" d="M20.09,12.7a6,6,0,0,1,.33,1.51,6.5,6.5,0,0,1-.11,1.92v.05h-.13l-1.06.17L18,16.53c-.13,0-.29,0-.34.18h0l0-1.07,0-2.57.17,0,.83-.13,1-.16Z"/><path class="cls-4" d="M17.3,19.82l-.54-.46a6.65,6.65,0,0,1-1.93-3.13,5.25,5.25,0,0,1-.17-1c0-.25,0-.5,0-.74A8.87,8.87,0,0,1,15,12.53v0s0,.05.06.08c.19.54.37,1.09.55,1.64l1.74,5.19a.47.47,0,0,0,.06.09Z"/><path class="cls-4" d="M20.09,12.7l-.44.06-1,.16-.83.13-.17,0V13a2.45,2.45,0,0,1,0-.27l0-1.74c0-.37,0-.73,0-1.09s0-.46,0-.68,0-.24,0-.36a1.48,1.48,0,0,1,0-.21l.26.5a3.27,3.27,0,0,0,.56.67A7.36,7.36,0,0,1,20.09,12.7Z"/><path class="cls-4" d="M17.65,16.72h0c.05-.18.21-.15.34-.18l1.09-.17,1.06-.17h.13c-.07.24-.12.48-.21.71a7.27,7.27,0,0,1-.33.76,5.06,5.06,0,0,1-.67,1,7.28,7.28,0,0,1-.66.7,4.54,4.54,0,0,1-.41.33l0,0-.12-.11-.14-.29a4.59,4.59,0,0,1-.15-1.05v0l0-.26c0-.09,0-.18,0-.27C17.63,17.35,17.64,17,17.65,16.72Z"/><path class="cls-3" d="M17.65,16.72c0,.31,0,.63,0,1,0,.08,0,.17,0,.26l-.09,0c-.18-.53-.36-1.06-.53-1.58l-.87-2.61c-.24-.71-.47-1.41-.71-2.11,0,0-.05-.06-.07-.09l.52-1a.41.41,0,0,1,.05.09l.72,2.13.93,2.78a.54.54,0,0,0,.05.11l.07-.08C17.66,16,17.66,16.36,17.65,16.72Z"/><path class="cls-4" d="M15.33,11.57s.06.06.07.09c.23.7.47,1.4.71,2.11L17,16.38c.17.52.35,1.05.53,1.58l.09,0,0,.26,0,.06c0,.28,0,.56-.09.84a3.1,3.1,0,0,1-.08.42.47.47,0,0,1-.06-.09l-1.74-5.19c-.18-.55-.36-1.1-.55-1.64,0,0,0-.05-.06-.08Z"/><path class="cls-4" d="M17.67,15.65l-.07.08a.54.54,0,0,1-.05-.11l-.93-2.78-.72-2.13a.41.41,0,0,0-.05-.09l.64-.84a.24.24,0,0,1,.06.08c.18.52.36,1,.53,1.56s.33,1,.49,1.47c0,0,.05,0,.08.08v.11Z"/><path class="cls-3" d="M17.65,13s-.07-.05-.08-.08c-.16-.49-.32-1-.49-1.47s-.35-1-.53-1.56a.24.24,0,0,0-.06-.08c.21-.21.41-.42.63-.62a.87.87,0,0,0,.36-.63v0l.06.14a1.48,1.48,0,0,0,0,.21c0,.12,0,.24,0,.36s0,.45,0,.68,0,.72,0,1.09l0,1.74A2.45,2.45,0,0,0,17.65,13Z"/><path class="cls-6" d="M17.39,19.51a3.1,3.1,0,0,0,.08-.42c0-.28.06-.56.09-.84h0a4.58,4.58,0,0,0,.15,1,.18.18,0,0,0,0,.07l-.23.66s0,.05-.06.07l-.08-.27Z"/><path class="cls-6" d="M17.38,20.09s.05,0,.06-.07l.23-.66a.18.18,0,0,1,0-.07l.14.29s-.07.07-.08.11l-.26.75s0,0-.07.08Z"/><path class="cls-6" d="M17.45,20.52s.06-.05.07-.08l.26-.75s0-.07.08-.11l.12.11a.22.22,0,0,0-.07.22l0,.13a.18.18,0,0,0-.05.07l-.27.76a.47.47,0,0,1-.06.09Z"/><path class="cls-6" d="M17.49,21a.47.47,0,0,0,.06-.09l.27-.76a.18.18,0,0,1,.05-.07l-.06.59,0,.05-.18.51a.31.31,0,0,1-.05.1s-.05,0-.05-.06A2.43,2.43,0,0,1,17.49,21Z"/><path class="cls-6" d="M17.54,21.29a.31.31,0,0,0,.05-.1l.18-.51.05-.05V21l-.13.33Z"/><path class="cls-6" d="M17.69,21.34l.13-.33,0,.4Z"/><path class="cls-6" d="M17.91,19.91a.22.22,0,0,1,.07-.22l0,0Z"/><path class="cls-7" d="M17.57,18.25h0l0-.06Z"/></g></g></svg>