<svg xmlns="http://www.w3.org/2000/svg" viewBox="0 0 27.22 27.22"><defs><style>.cls-1{fill:none;stroke:#fff;stroke-linecap:round;stroke-linejoin:round;stroke-width:2px;}</style></defs><g id="Layer_2" data-name="Layer 2"><g id="Layer_1-2" data-name="Layer 1"><path class="cls-1" d="M20.62,5.2a4.24,4.24,0,0,1-.24,1.4h4.44A1.41,1.41,0,0,1,26.22,8v4.44a4.08,4.08,0,0,0-1.4-.24,4.21,4.21,0,0,0,0,8.41,4.33,4.33,0,0,0,1.4-.24v4.44a1.4,1.4,0,0,1-1.4,1.4H8a1.41,1.41,0,0,1-1.41-1.4V20.38a4.2,4.2,0,1,1-1.4-8.17,4,4,0,0,1,1.4.24V8A1.41,1.41,0,0,1,8,6.6h4.44a4,4,0,0,1-.24-1.4,4.21,4.21,0,0,1,8.41,0Z"/></g></g></svg>