<svg xmlns="http://www.w3.org/2000/svg" viewBox="0 0 28.02 26.22"><defs><style>.cls-1{fill:none;stroke:#fff;stroke-linecap:round;stroke-linejoin:round;stroke-width:2px;}.cls-2{fill:#fff;}</style></defs><g id="Layer_2" data-name="Layer 2"><g id="Layer_1-2" data-name="Layer 1"><path class="cls-1" d="M1.4,24.82H21"/><path class="cls-2" d="M21,16.41h-1.4a1.4,1.4,0,0,0,1.4,1.4ZM21,8V6.6A1.41,1.41,0,0,0,19.62,8Zm1.4,0V8Zm0,8.4v0Zm0,0V8h-2.8v8.4Zm-1.4-7h1.4V6.6H21Zm1.4,5.6H21v2.8h1.4Zm2.8-2.8a2.8,2.8,0,0,1-2.8,2.8v2.8a5.59,5.59,0,0,0,5.6-5.6Zm-2.8-2.8a2.8,2.8,0,0,1,2.8,2.8H28a5.6,5.6,0,0,0-5.6-5.61Z"/><path class="cls-2" d="M1.4,8V6.6A1.41,1.41,0,0,0,0,8ZM21,8h1.4A1.41,1.41,0,0,0,21,6.6ZM1.4,9.41H21V6.6H1.4ZM19.62,8v7h2.8V8ZM2.8,15V8H0v7Zm8.41,8.41A8.41,8.41,0,0,1,2.8,15H0A11.21,11.21,0,0,0,11.21,26.22ZM19.62,15a8.41,8.41,0,0,1-8.41,8.41v2.8A11.21,11.21,0,0,0,22.42,15Z"/><path class="cls-1" d="M16.81,1l-1.4,2.8"/><path class="cls-1" d="M12.61,1l-1.4,2.8"/><path class="cls-1" d="M8.41,1,7,3.8"/></g></g></svg>