<svg xmlns="http://www.w3.org/2000/svg" viewBox="0 0 35.23 35.23"><defs><style>.cls-1,.cls-2{fill:none;}.cls-2{stroke:#9FEF00;}.cls-3{fill:#f6f6f6;}</style></defs><g id="Layer_2" data-name="Layer 2"><g id="Layer_1-2" data-name="Layer 1"><rect class="cls-1" x="1" y="1" width="33.23" height="33.23" rx="3"/><rect class="cls-2" x="0.5" y="0.5" width="34.23" height="34.23" rx="3.5"/><path class="cls-3" d="M16,7.65h3.47v15.9a23.42,23.42,0,0,1-4.5.46c-4.24,0-6.44-1.89-6.44-5.53s2.34-5.77,6-5.77a5.78,5.78,0,0,1,1.51.17Zm.12,8.1a3.29,3.29,0,0,0-1.17-.18c-1.75,0-2.77,1.07-2.77,2.95a2.52,2.52,0,0,0,2.75,2.83,7.69,7.69,0,0,0,1.19-.09Z"/><path class="cls-3" d="M25.09,13.13v8c0,2.74-.2,4.06-.81,5.2a5.51,5.51,0,0,1-2.83,2.54l-3.22-1.51A5.07,5.07,0,0,0,21,25c.49-1,.65-2.12.65-5.11V13.13ZM21.28,7.65h3.47v3.52H21.28Z"/></g></g></svg>