<svg xmlns="http://www.w3.org/2000/svg" viewBox="0 0 28 28"><defs><style>.cls-1,.cls-2{fill:#fff;}.cls-2{fill-rule:evenodd;}</style></defs><g id="Layer_2" data-name="Layer 2"><g id="Layer_1-2" data-name="Layer 1"><path class="cls-1" d="M18,13.7c1,.06,2-.79,1.63-1.76h0c-.36-1-1.63-.94-2.48-.35a10.12,10.12,0,0,1-1,.58,1,1,0,0,0-.48,1.27h0l.07.15h0a.21.21,0,0,0,.23.14A12.16,12.16,0,0,1,18,13.7Z"/><path class="cls-1" d="M17.12,10.4c.86-.71.21-1.48-.82-1.9A5.9,5.9,0,0,0,14,8a6.28,6.28,0,0,0-1.24.12.1.1,0,0,0-.06.16h0c.2.29.65.92,1.17,1.75a2.51,2.51,0,0,0,3.25.33Z"/><path class="cls-1" d="M11.21,12.55c1.25-.18,1.49-2.14.78-3.19h0c-.52-.77-1.17-.5-1.88.1a6.06,6.06,0,0,0-2,3.31s0,0,0,0h0A22.25,22.25,0,0,0,11.21,12.55Z"/><path class="cls-1" d="M8.2,13.84A.18.18,0,0,0,8,14H8a5.91,5.91,0,0,0,1.53,4s0,0,0,0h0a9.52,9.52,0,0,1,4.85-3.92l.11,0h0a.11.11,0,0,0,.07-.16c-.06-.15-.14-.3-.21-.45a.61.61,0,0,0-.71-.31A22.72,22.72,0,0,1,8.2,13.84Z"/><path class="cls-1" d="M11.86,16.81a1.71,1.71,0,0,0,.66,3A6.06,6.06,0,0,0,14,20h.07a2,2,0,0,0,1.75-2.75c-.19-.66-.43-1.42-.75-2.24,0,0,0,0,0,0h0l0,0A9.14,9.14,0,0,0,11.86,16.81Z"/><path class="cls-1" d="M18.1,14.63c-1-.07-1.4,1.6-1.15,2.57h0c.29,1.12,1.48,1,2.1,0a5.82,5.82,0,0,0,.84-2.2.05.05,0,0,0,0-.05h0A9.79,9.79,0,0,0,18.1,14.63Z"/><path class="cls-2" d="M0,3A3,3,0,0,1,3,0H25a3,3,0,0,1,3,3V25a3,3,0,0,1-3,3H3a3,3,0,0,1-3-3ZM7,14a7,7,0,1,1,7,7A7,7,0,0,1,7,14Z"/></g></g></svg>