<svg xmlns="http://www.w3.org/2000/svg" viewBox="0 0 33.23 33.23"><defs><style>.cls-1{fill:none;stroke:#064362;}.cls-2{fill:#d2d4d5;}.cls-3{fill:#064362;}.cls-4{fill:#0a5f89;}.cls-5{fill:#aba3b4;}</style></defs><g id="Layer_2" data-name="Layer 2"><g id="Layer_1-2" data-name="Layer 1"><rect class="cls-1" x="0.5" y="0.5" width="32.23" height="32.23" rx="2.5"/><path class="cls-2" d="M16.34,16.62a2.77,2.77,0,1,1,2.77,2.76A2.77,2.77,0,0,1,16.34,16.62Z"/><path class="cls-3" d="M10.8,22.15a2.77,2.77,0,0,1,2.77-2.77h2.77v2.77a2.77,2.77,0,0,1-5.54,0Z"/><path class="cls-4" d="M16.34,8.31v5.54h2.77a2.77,2.77,0,0,0,0-5.54Z"/><path class="cls-3" d="M10.8,11.08a2.77,2.77,0,0,0,2.77,2.77h2.77V8.31H13.57A2.77,2.77,0,0,0,10.8,11.08Z"/><path class="cls-5" d="M10.8,16.62a2.77,2.77,0,0,0,2.77,2.76h2.77V13.85H13.57A2.77,2.77,0,0,0,10.8,16.62Z"/></g></g></svg>