<svg xmlns="http://www.w3.org/2000/svg" viewBox="0 0 28 28"><defs><style>.cls-1{fill:#9FEF00;fill-rule:evenodd;}</style></defs><g id="Layer_2" data-name="Layer 2"><g id="Layer_1-2" data-name="Layer 1"><path class="cls-1" d="M0,3A3,3,0,0,1,3,0H25a3,3,0,0,1,3,3V25a3,3,0,0,1-3,3H3a3,3,0,0,1-3-3ZM7,14.15a7,7,0,1,1,9.53,6.53.7.7,0,0,1-.58.06.34.34,0,0,1-.17-.3V18.51h0a2,2,0,0,1,.9-1.59c1-.39,1.79-1.23,1.79-3.12A2.75,2.75,0,0,0,17.78,12a.1.1,0,0,1,0-.09h0a3.28,3.28,0,0,0,.11-.71c0-.7-.05-1.21-.73-1h0a9.07,9.07,0,0,1-2.38.52,6.81,6.81,0,0,0-.78-.05c-.25,0-.49,0-.73,0a10.73,10.73,0,0,1-2.48-.51h0c-.65-.15-.68.33-.68,1a2.33,2.33,0,0,0,.12.76h0a2.66,2.66,0,0,0-.73,1.88c0,2.22,1.11,3,2.36,3.33a.66.66,0,0,1,.43.79h0a.51.51,0,0,1-.26.37,1.43,1.43,0,0,1-1.78-.64.43.43,0,0,0,0-.07,1.49,1.49,0,0,0-1-.69.54.54,0,0,0-.18,0c-.14,0-.34.07-.14.27a4,4,0,0,0,.39.29,2.14,2.14,0,0,1,.55.84.42.42,0,0,0,0,.1,1.57,1.57,0,0,0,1.14.92c.6.14,1.19.56,1.19,1.17h0a.34.34,0,0,1-.17.3.7.7,0,0,1-.59-.07A7,7,0,0,1,7,14.15Z"/></g></g></svg>