<svg xmlns="http://www.w3.org/2000/svg" viewBox="0 0 28 28"><defs><style>.cls-1{fill:#9FEF00;fill-rule:evenodd;}</style></defs><g id="Layer_2" data-name="Layer 2"><g id="Layer_1-2" data-name="Layer 1"><path class="cls-1" d="M0,3A3,3,0,0,1,3,0H25a3,3,0,0,1,3,3V25a3,3,0,0,1-3,3H3a3,3,0,0,1-3-3Zm8.66,8.64a1.49,1.49,0,0,0-1.49,1.48v6.39A1.49,1.49,0,0,0,8.66,21h0a1.49,1.49,0,0,0,1.49-1.49V13.12a1.49,1.49,0,0,0-1.49-1.48ZM7,8.66a1.61,1.61,0,0,0,1.66,1.66,1.62,1.62,0,0,0,1.67-1.66A1.62,1.62,0,0,0,8.66,7,1.66,1.66,0,0,0,7,8.66ZM18,19.6A1.4,1.4,0,0,0,19.42,21h0a1.41,1.41,0,0,0,1.41-1.4V15.23c0-2.89-1.75-3.85-3.42-3.85a3.33,3.33,0,0,0-2.11.74c-.19.15-.69,0-.69-.26h0a.22.22,0,0,0-.22-.22H13.21a1.4,1.4,0,0,0-1.4,1.4v6.47A1.49,1.49,0,0,0,13.3,21h0a1.49,1.49,0,0,0,1.49-1.49V16a1.83,1.83,0,0,1,1.75-2c.87,0,1.49.44,1.49,1.93Z"/></g></g></svg>