<svg xmlns="http://www.w3.org/2000/svg" viewBox="0 0 35.23 35.23"><defs><style>.cls-1,.cls-2{fill:none;}.cls-2{stroke:#064362;}.cls-3{fill:#064362;}</style></defs><g id="Layer_2" data-name="Layer 2"><g id="Layer_1-2" data-name="Layer 1"><rect class="cls-1" x="1" y="1" width="33.23" height="33.23" rx="3"/><rect class="cls-2" x="0.5" y="0.5" width="34.23" height="34.23" rx="3.5"/><path class="cls-3" d="M25.27,12.64l-6.85-4a1.51,1.51,0,0,0-1.43,0l-6.92,4a1.47,1.47,0,0,0-.76,1.25v7.94a1.5,1.5,0,0,0,.77,1.26l1.83,1a2.92,2.92,0,0,0,1.58.43,1.91,1.91,0,0,0,2-2.15V14.57c0-.11-.06-.28-.17-.28h-.87c-.11,0-.36.17-.36.28v7.84c0,.6-.55,1.21-1.57.69L10.66,22a.24.24,0,0,1-.11-.19V13.89c0-.07.09-.15.15-.19l6.9-4a.28.28,0,0,1,.22,0l6.82,4c.06,0,0,.11,0,.19v7.94c0,.08,0,.15,0,.19L17.8,26a.18.18,0,0,1-.2,0l-1.75-1a.17.17,0,0,0-.17,0,4.48,4.48,0,0,1-1,.47c-.11,0-.27.11.07.3L17,27.06a1.46,1.46,0,0,0,1.44,0l6.82-4a1.41,1.41,0,0,0,.65-1.26V13.89A1.4,1.4,0,0,0,25.27,12.64Zm-5.42,7.93c-1.82,0-2.22-.5-2.35-1.4,0-.1-.1-.22-.2-.22h-.89c-.11,0-.2.14-.2.25,0,1.15.63,2.56,3.64,2.56,2.18,0,3.43-.85,3.43-2.35s-1-1.87-3.11-2.15-2.36-.43-2.36-.93.19-1,1.77-1c1.41,0,1.93.3,2.15,1.25a.2.2,0,0,0,.19.16h.89a.2.2,0,0,0,.15-.06.24.24,0,0,0,.05-.16c-.14-1.64-1.23-2.4-3.43-2.4-2,0-3.13.83-3.13,2.22s1.16,1.92,3,2.1c2.26.22,2.43.55,2.43,1C21.92,20.25,21.3,20.57,19.85,20.57Z"/></g></g></svg>