<svg xmlns="http://www.w3.org/2000/svg" viewBox="0 0 32.23 32.23"><defs><style>.cls-1{fill:#064362;}</style></defs><g id="Layer_2" data-name="Layer 2"><g id="Layer_1-2" data-name="Layer 1"><rect width="32.23" height="32.23" rx="2.5"/><path class="cls-1" d="M21.42,14.25c-1.05,0-1.36.52-1.36.94s.26.79,1.64,1.52c2,1,2.72,1.94,2.72,3.35,0,2.1-1.57,3.25-3.77,3.25a5.62,5.62,0,0,1-2.73-.57c-.1-.06-.1-.11-.1-.21V20.59c0-.11.05-.16.16-.11a4.61,4.61,0,0,0,2.62.79c1,0,1.47-.42,1.47-1s-.33-.89-1.64-1.58c-1.84-.89-2.62-1.78-2.62-3.3,0-1.67,1.31-3.09,3.6-3.09a6.15,6.15,0,0,1,2.36.37.18.18,0,0,1,.11.24v1.8c0,.11-.05.16-.21.11a4.66,4.66,0,0,0-2.22-.59ZM16.57,13.2c0,3.35-2.41,4.77-5.39,4.77h-1v5a.14.14,0,0,1-.11.16H8A.14.14,0,0,1,7.81,23v0L7.86,8.85c0-.11.21-.16.33-.16.84,0,2.1,0,3.35,0C15.15,8.64,16.57,10.63,16.57,13.2Zm-2.38,0c0-1.68-1-2.52-2.78-2.52a10.62,10.62,0,0,0-1.26.05v5.09h1C12.74,15.82,14.19,15.29,14.19,13.2Z"/></g></g></svg>