<svg xmlns="http://www.w3.org/2000/svg" viewBox="0 0 33.23 33.23"><defs><style>.cls-1{fill:none;stroke:#9FEF00;}.cls-2{fill:#f6f6f6;}</style></defs><g id="Layer_2" data-name="Layer 2"><g id="Layer_1-2" data-name="Layer 1"><rect class="cls-1" x="0.5" y="0.5" width="32.23" height="32.23" rx="2.5"/><path class="cls-2" d="M21.92,14.75c-1.05,0-1.36.52-1.36.94s.26.79,1.64,1.52c2,1,2.72,1.94,2.72,3.35,0,2.1-1.57,3.25-3.77,3.25a5.62,5.62,0,0,1-2.73-.57c-.1-.06-.1-.11-.1-.21V21.09c0-.11.05-.16.16-.11a4.61,4.61,0,0,0,2.62.79c1,0,1.47-.42,1.47-1s-.33-.89-1.64-1.58c-1.84-.89-2.62-1.78-2.62-3.3,0-1.67,1.31-3.09,3.6-3.09a6.15,6.15,0,0,1,2.36.37.18.18,0,0,1,.11.24v1.8c0,.11-.05.16-.21.11a4.66,4.66,0,0,0-2.22-.59ZM17.07,13.7c0,3.35-2.41,4.77-5.39,4.77h-1v5a.14.14,0,0,1-.11.16H8.47a.14.14,0,0,1-.16-.12v0l0-14.15c0-.11.21-.16.33-.16.84,0,2.1,0,3.35,0C15.65,9.14,17.07,11.13,17.07,13.7Zm-2.38,0c0-1.68-1-2.52-2.78-2.52a10.62,10.62,0,0,0-1.26.05v5.09h1C13.24,16.32,14.69,15.79,14.69,13.7Z"/></g></g></svg>