<svg xmlns="http://www.w3.org/2000/svg" viewBox="0 0 33.23 33.23"><defs><style>.cls-1{fill:#fff;}.cls-2{fill:#064362;}</style></defs><g id="Layer_2" data-name="Layer 2"><g id="Layer_1-2" data-name="Layer 1"><rect class="cls-1" width="33.23" height="33.23" rx="3"/><path class="cls-2" d="M15.78,15.36a1.59,1.59,0,0,0-.66.7A1.68,1.68,0,0,0,15,17a1.62,1.62,0,0,0,.4.88,1.57,1.57,0,0,0,.82.51,1.61,1.61,0,0,0,1,0,1.69,1.69,0,0,0,.78-.56A1.65,1.65,0,0,0,18.06,16a1.64,1.64,0,0,0-1-.78A1.68,1.68,0,0,0,15.78,15.36Zm7.47,1.81-.34-.38.24-.27c1.5-1.68,2.14-3.37,1.55-4.39s-2.24-1.26-4.33-.86l-.62.14c0-.13-.08-.27-.12-.4-.71-2.14-1.86-3.53-3-3.53s-2.21,1.3-2.91,3.32c-.07.2-.13.4-.19.6l-.41-.09c-2.21-.46-4-.16-4.57.86s0,2.57,1.43,4.18c.14.16.28.31.43.46-.18.18-.34.36-.49.54C8.52,18.93,8,20.5,8.52,21.47s2.34,1.33,4.47.91a4.37,4.37,0,0,0,.52-.12q.09.33.21.66c.69,2,1.77,3.23,2.89,3.23s2.32-1.35,3-3.41c.05-.17.11-.33.16-.51q.33.09.66.15c2.06.39,3.7.08,4.25-.89s0-2.69-1.45-4.32Zm-14-4.6c.36-.63,1.82-.87,3.72-.48l.37.08a21.29,21.29,0,0,0-.39,2.5,20,20,0,0,0-2,1.59c-.14-.14-.27-.29-.4-.44h0C9.35,14.44,8.87,13.16,9.21,12.57Zm3.63,5.35a14.85,14.85,0,0,1-1.32-1.11,16.66,16.66,0,0,1,1.32-1.09c0,.36,0,.73,0,1.1S12.82,17.55,12.84,17.92Zm0,3.68a6.62,6.62,0,0,1-2.47.08,1.57,1.57,0,0,1-1.15-.61c-.34-.59.1-1.85,1.27-3.2.15-.17.3-.34.46-.5a20,20,0,0,0,2,1.59,19.59,19.59,0,0,0,.4,2.53Zm6.63-7.51c-.31-.2-.63-.39-.95-.57s-.64-.36-1-.53c.55-.23,1.1-.43,1.62-.59A16.12,16.12,0,0,1,19.47,14.09Zm-5-3C15,9.33,15.92,8.28,16.6,8.27s1.66,1.14,2.27,3l.12.36a20,20,0,0,0-2.37.91,19.09,19.09,0,0,0-2.35-.92Zm-.38,1.33a15.75,15.75,0,0,1,1.62.6c-.65.34-1.29.7-1.91,1.1A16.7,16.7,0,0,1,14.07,12.39Zm-.29,7.15c.31.2.62.39.94.57s.65.37,1,.54a16.05,16.05,0,0,1-1.63.62A16.78,16.78,0,0,1,13.78,19.54Zm5.09,2.94a6.91,6.91,0,0,1-1.15,2.18h0a1.75,1.75,0,0,1-.48.46,1.87,1.87,0,0,1-.63.24c-.68,0-1.55-1-2.14-2.71-.07-.2-.13-.4-.19-.6a18.46,18.46,0,0,0,2.36-.95A18.57,18.57,0,0,0,19,22C19,22.17,18.93,22.33,18.87,22.48Zm.34-1.24a15.69,15.69,0,0,1-1.64-.6c.31-.17.63-.34.95-.53l1-.58a16.47,16.47,0,0,1-.28,1.71Zm.42-4.43c0,.57,0,1.14-.06,1.7a17.05,17.05,0,0,1-1.45.91c-.5.29-1,.56-1.49.8-.51-.25-1-.51-1.51-.8s-1-.58-1.44-.9c0-.57-.07-1.13-.07-1.7h0c0-.57,0-1.14.07-1.7.46-.32.94-.62,1.44-.91s1-.56,1.5-.8c.51.25,1,.52,1.5.8s1,.58,1.45.89q.06.86.06,1.71Zm.89-4.75c1.8-.35,3.15-.12,3.49.47s-.16,2-1.45,3.46h0l-.23.24a18.92,18.92,0,0,0-2-1.57A17.49,17.49,0,0,0,20,12.18Zm-.12,3.63a14.33,14.33,0,0,1,1.36,1.11,16.52,16.52,0,0,1-1.36,1.12q0-.55,0-1.11C20.43,16.44,20.42,16.06,20.4,15.69ZM24,21.09c-.34.59-1.65.84-3.41.5-.2,0-.41-.08-.62-.13A17.64,17.64,0,0,0,20.34,19a18,18,0,0,0,2-1.6l.31.34h0A6.7,6.7,0,0,1,24,19.78a1.52,1.52,0,0,1,.16.65A1.48,1.48,0,0,1,24,21.09Z"/></g></g></svg>