<svg xmlns="http://www.w3.org/2000/svg" viewBox="0 0 28 28"><defs><style>.cls-1{fill:#9FEF00;fill-rule:evenodd;}</style></defs><g id="Layer_2" data-name="Layer 2"><g id="Layer_1-2" data-name="Layer 1"><path class="cls-1" d="M0,3A3,3,0,0,1,3,0H25a3,3,0,0,1,3,3V25a3,3,0,0,1-3,3H3a3,3,0,0,1-3-3ZM20.14,9.38c-.14.17,0,.54.25.48h0c.19,0,.36.16.23.31a4.34,4.34,0,0,1-.83.77.62.62,0,0,0-.27.5,8.07,8.07,0,0,1-8.14,8.25,7.61,7.61,0,0,1-2-.27c-.59-.16-.31-1.15.26-1.35h0c.52-.17.29-.93-.16-1.24a2.94,2.94,0,0,1-1-1.17.23.23,0,0,1,.24-.31h0c.23,0,.27-.38.08-.51a3.09,3.09,0,0,1-1.38-2.07.28.28,0,0,1,.39-.27h0c.27.1.4-.23.23-.46a2.91,2.91,0,0,1-.61-1.93c0-.66.84-.75,1.34-.32A8,8,0,0,0,10.61,11c1.5.75,3-1.14,4.33-2.13a2.86,2.86,0,0,1,1.68-.55A3.08,3.08,0,0,1,18.46,9a.68.68,0,0,0,.61.15A6.62,6.62,0,0,0,20,8.8c.22-.09.47.11.35.32S20.2,9.29,20.14,9.38Z"/></g></g></svg>