<svg xmlns="http://www.w3.org/2000/svg" viewBox="0 0 33.23 33.23"><defs><style>.cls-1{fill:#fff;}.cls-2{fill:#064362;}</style></defs><g id="Layer_2" data-name="Layer 2"><g id="Layer_1-2" data-name="Layer 1"><rect class="cls-1" width="33.23" height="33.23" rx="3"/><path class="cls-2" d="M17,11.36l-2.92,5,3.15,5.34c.06.11,0,.16-.08.16h-2a.4.4,0,0,1-.15,0,.32.32,0,0,1-.1-.1l-2.21-4.06h0l-2.15,4.06a.2.2,0,0,1-.09.09.19.19,0,0,1-.12,0H8.41c-.11,0-.13-.05-.07-.16l3.1-5.2L8.49,11.33c-.06-.09,0-.13.06-.13h2a.16.16,0,0,1,.12,0,.2.2,0,0,1,.09.09l2.08,4h0l2.07-4a.2.2,0,0,1,.09-.09.17.17,0,0,1,.12,0h1.79C17,11.2,17,11.25,17,11.36Zm4.8,10.72a3.76,3.76,0,0,1-2.72-1,3.81,3.81,0,0,1-1-2.88,3.86,3.86,0,0,1,1.11-2.85,4,4,0,0,1,1.33-.91,4.09,4.09,0,0,1,1.59-.3,3.53,3.53,0,0,1,.72.08V10.89s0,0,0,0a.05.05,0,0,1,0,0l0,0h1.85c.05,0,.07,0,.07.09v9.38a7.37,7.37,0,0,0,.2,1,.11.11,0,0,1,0,.08.13.13,0,0,1-.07.06A7.41,7.41,0,0,1,21.75,22.08Zm1-1.54V15.76a1.07,1.07,0,0,0-.75-.21,1.86,1.86,0,0,0-.84.17,1.8,1.8,0,0,0-.68.51,2.86,2.86,0,0,0-.7,1.92A2.63,2.63,0,0,0,20.47,20a2,2,0,0,0,1.46.67A1.5,1.5,0,0,0,22.75,20.54Z"/></g></g></svg>